<mxfile host="Electron" modified="2024-04-03T11:10:16.225Z" agent="Mozilla/5.0 (Macintosh; Intel Mac OS X 10_15_7) AppleWebKit/537.36 (KHTML, like Gecko) draw.io/24.1.0 Chrome/120.0.6099.109 Electron/28.1.0 Safari/537.36" etag="OpNgSsThL-yX44lW-X5L" version="24.1.0" type="device" pages="4">
  <diagram name="deployed-implementation-type" id="qUKCv-Z4yKY8zKKvtONu">
    <mxGraphModel dx="1242" dy="823" grid="1" gridSize="10" guides="1" tooltips="1" connect="1" arrows="1" fold="1" page="1" pageScale="1" pageWidth="827" pageHeight="1169" math="0" shadow="0">
      <root>
        <mxCell id="0" />
        <mxCell id="1" parent="0" />
        <mxCell id="b3Yb-m2iy14IqW4_P95S-3" style="edgeStyle=orthogonalEdgeStyle;rounded=0;orthogonalLoop=1;jettySize=auto;html=1;exitX=1;exitY=0.5;exitDx=0;exitDy=0;entryX=0;entryY=0.5;entryDx=0;entryDy=0;" parent="1" source="b3Yb-m2iy14IqW4_P95S-1" target="b3Yb-m2iy14IqW4_P95S-2" edge="1">
          <mxGeometry relative="1" as="geometry" />
        </mxCell>
        <mxCell id="b3Yb-m2iy14IqW4_P95S-12" style="edgeStyle=orthogonalEdgeStyle;rounded=0;orthogonalLoop=1;jettySize=auto;html=1;exitX=0.75;exitY=1;exitDx=0;exitDy=0;entryX=0;entryY=0.5;entryDx=0;entryDy=0;" parent="1" source="b3Yb-m2iy14IqW4_P95S-1" target="b3Yb-m2iy14IqW4_P95S-5" edge="1">
          <mxGeometry relative="1" as="geometry" />
        </mxCell>
        <mxCell id="b3Yb-m2iy14IqW4_P95S-15" style="edgeStyle=orthogonalEdgeStyle;rounded=0;orthogonalLoop=1;jettySize=auto;html=1;exitX=0.5;exitY=1;exitDx=0;exitDy=0;entryX=0;entryY=0.5;entryDx=0;entryDy=0;" parent="1" source="b3Yb-m2iy14IqW4_P95S-1" target="b3Yb-m2iy14IqW4_P95S-14" edge="1">
          <mxGeometry relative="1" as="geometry" />
        </mxCell>
        <mxCell id="b3Yb-m2iy14IqW4_P95S-17" style="edgeStyle=orthogonalEdgeStyle;rounded=0;orthogonalLoop=1;jettySize=auto;html=1;exitX=0.5;exitY=1;exitDx=0;exitDy=0;entryX=0;entryY=0.5;entryDx=0;entryDy=0;" parent="1" source="b3Yb-m2iy14IqW4_P95S-1" target="b3Yb-m2iy14IqW4_P95S-16" edge="1">
          <mxGeometry relative="1" as="geometry" />
        </mxCell>
        <mxCell id="b3Yb-m2iy14IqW4_P95S-18" style="edgeStyle=orthogonalEdgeStyle;rounded=0;orthogonalLoop=1;jettySize=auto;html=1;exitX=0.5;exitY=1;exitDx=0;exitDy=0;entryX=0;entryY=0.5;entryDx=0;entryDy=0;" parent="1" source="b3Yb-m2iy14IqW4_P95S-1" target="b3Yb-m2iy14IqW4_P95S-19" edge="1">
          <mxGeometry relative="1" as="geometry">
            <mxPoint x="290" y="650" as="targetPoint" />
          </mxGeometry>
        </mxCell>
        <mxCell id="b3Yb-m2iy14IqW4_P95S-1" value="Deployed Implementation Type" style="rounded=0;whiteSpace=wrap;html=1;fillColor=#e1d5e7;strokeColor=#9673a6;" parent="1" vertex="1">
          <mxGeometry x="230" y="200" width="120" height="60" as="geometry" />
        </mxCell>
        <mxCell id="b3Yb-m2iy14IqW4_P95S-2" value="Governance&lt;br&gt;Definition" style="rounded=0;whiteSpace=wrap;html=1;fillColor=#d5e8d4;strokeColor=#82b366;" parent="1" vertex="1">
          <mxGeometry x="460" y="200" width="120" height="60" as="geometry" />
        </mxCell>
        <mxCell id="b3Yb-m2iy14IqW4_P95S-4" value="GovernedBy" style="text;html=1;align=center;verticalAlign=middle;resizable=0;points=[];autosize=1;strokeColor=none;fillColor=none;" parent="1" vertex="1">
          <mxGeometry x="360" y="200" width="90" height="30" as="geometry" />
        </mxCell>
        <mxCell id="b3Yb-m2iy14IqW4_P95S-7" value="" style="edgeStyle=orthogonalEdgeStyle;rounded=0;orthogonalLoop=1;jettySize=auto;html=1;" parent="1" source="b3Yb-m2iy14IqW4_P95S-5" target="b3Yb-m2iy14IqW4_P95S-6" edge="1">
          <mxGeometry relative="1" as="geometry" />
        </mxCell>
        <mxCell id="b3Yb-m2iy14IqW4_P95S-5" value="Asset" style="rounded=0;whiteSpace=wrap;html=1;fillColor=#fff2cc;strokeColor=#d6b656;" parent="1" vertex="1">
          <mxGeometry x="460" y="310" width="120" height="60" as="geometry" />
        </mxCell>
        <mxCell id="b3Yb-m2iy14IqW4_P95S-9" value="" style="edgeStyle=orthogonalEdgeStyle;rounded=0;orthogonalLoop=1;jettySize=auto;html=1;fillColor=#dae8fc;strokeColor=#6c8ebf;" parent="1" source="b3Yb-m2iy14IqW4_P95S-6" target="b3Yb-m2iy14IqW4_P95S-8" edge="1">
          <mxGeometry relative="1" as="geometry" />
        </mxCell>
        <mxCell id="b3Yb-m2iy14IqW4_P95S-11" value="" style="edgeStyle=orthogonalEdgeStyle;rounded=0;orthogonalLoop=1;jettySize=auto;html=1;entryX=0;entryY=0.5;entryDx=0;entryDy=0;fillColor=#dae8fc;strokeColor=#6c8ebf;" parent="1" source="b3Yb-m2iy14IqW4_P95S-6" target="b3Yb-m2iy14IqW4_P95S-10" edge="1">
          <mxGeometry relative="1" as="geometry" />
        </mxCell>
        <mxCell id="b3Yb-m2iy14IqW4_P95S-6" value="Connection" style="whiteSpace=wrap;html=1;rounded=0;fillColor=#dae8fc;strokeColor=#6c8ebf;" parent="1" vertex="1">
          <mxGeometry x="660" y="310" width="120" height="60" as="geometry" />
        </mxCell>
        <mxCell id="b3Yb-m2iy14IqW4_P95S-8" value="ConnectorType" style="whiteSpace=wrap;html=1;rounded=0;fillColor=#dae8fc;strokeColor=#6c8ebf;" parent="1" vertex="1">
          <mxGeometry x="860" y="310" width="120" height="60" as="geometry" />
        </mxCell>
        <mxCell id="b3Yb-m2iy14IqW4_P95S-10" value="Endpoint" style="whiteSpace=wrap;html=1;rounded=0;fillColor=#fff2cc;strokeColor=#d6b656;" parent="1" vertex="1">
          <mxGeometry x="860" y="380" width="120" height="60" as="geometry" />
        </mxCell>
        <mxCell id="b3Yb-m2iy14IqW4_P95S-13" value="CatalogTemplate" style="text;html=1;align=center;verticalAlign=middle;resizable=0;points=[];autosize=1;strokeColor=none;fillColor=none;" parent="1" vertex="1">
          <mxGeometry x="340" y="310" width="110" height="30" as="geometry" />
        </mxCell>
        <mxCell id="b3Yb-m2iy14IqW4_P95S-14" value="Governance Action&lt;br&gt;Process" style="rounded=0;whiteSpace=wrap;html=1;fillColor=#f5f5f5;strokeColor=#666666;fontColor=#333333;" parent="1" vertex="1">
          <mxGeometry x="335" y="450" width="120" height="60" as="geometry" />
        </mxCell>
        <mxCell id="b3Yb-m2iy14IqW4_P95S-16" value="Governance Engine/Service" style="rounded=0;whiteSpace=wrap;html=1;fillColor=#f5f5f5;strokeColor=#666666;fontColor=#333333;" parent="1" vertex="1">
          <mxGeometry x="335" y="525" width="120" height="60" as="geometry" />
        </mxCell>
        <mxCell id="b3Yb-m2iy14IqW4_P95S-19" value="Integration&lt;br&gt;Connector" style="rounded=0;whiteSpace=wrap;html=1;fillColor=#f5f5f5;strokeColor=#666666;fontColor=#333333;" parent="1" vertex="1">
          <mxGeometry x="335" y="600" width="120" height="60" as="geometry" />
        </mxCell>
        <mxCell id="b3Yb-m2iy14IqW4_P95S-20" value="ResourceList" style="text;html=1;align=center;verticalAlign=middle;resizable=0;points=[];autosize=1;strokeColor=none;fillColor=none;" parent="1" vertex="1">
          <mxGeometry x="300" y="395" width="90" height="30" as="geometry" />
        </mxCell>
        <mxCell id="b3Yb-m2iy14IqW4_P95S-21" style="edgeStyle=orthogonalEdgeStyle;rounded=0;orthogonalLoop=1;jettySize=auto;html=1;exitX=0.5;exitY=1;exitDx=0;exitDy=0;entryX=0;entryY=0.5;entryDx=0;entryDy=0;" parent="1" target="b3Yb-m2iy14IqW4_P95S-22" edge="1">
          <mxGeometry relative="1" as="geometry">
            <mxPoint x="290" y="720" as="targetPoint" />
            <mxPoint x="290" y="330" as="sourcePoint" />
            <Array as="points">
              <mxPoint x="290" y="700" />
            </Array>
          </mxGeometry>
        </mxCell>
        <mxCell id="b3Yb-m2iy14IqW4_P95S-22" value="Resource&lt;br&gt;Connector Type" style="rounded=0;whiteSpace=wrap;html=1;fillColor=#f5f5f5;strokeColor=#666666;fontColor=#333333;" parent="1" vertex="1">
          <mxGeometry x="335" y="670" width="120" height="60" as="geometry" />
        </mxCell>
        <mxCell id="b3Yb-m2iy14IqW4_P95S-23" value="Asset" style="rounded=0;whiteSpace=wrap;html=1;fillColor=#fff2cc;strokeColor=#d6b656;" parent="1" vertex="1">
          <mxGeometry x="630" y="600" width="60" height="30" as="geometry" />
        </mxCell>
        <mxCell id="b3Yb-m2iy14IqW4_P95S-24" value="deployedImplementationType = xxx" style="rounded=0;whiteSpace=wrap;html=1;fillColor=#fff2cc;strokeColor=#d6b656;" parent="1" vertex="1">
          <mxGeometry x="630" y="630" width="210" height="60" as="geometry" />
        </mxCell>
        <mxCell id="fNWjKRO-uDi4oFVqw6zM-1" value="Apache Atlas&lt;br&gt;Relational Database&lt;br&gt;Files in Folder&lt;br&gt;File&lt;br&gt;CSV File&lt;br&gt;SAP Application" style="text;html=1;align=left;verticalAlign=middle;resizable=0;points=[];autosize=1;strokeColor=none;fillColor=none;" parent="1" vertex="1">
          <mxGeometry x="80" y="180" width="130" height="100" as="geometry" />
        </mxCell>
        <mxCell id="V9C78iC_zSS600BThOtj-1" value="ValidValueSet" style="rounded=0;whiteSpace=wrap;html=1;fillColor=#e1d5e7;strokeColor=#9673a6;" vertex="1" parent="1">
          <mxGeometry x="230" y="170" width="90" height="30" as="geometry" />
        </mxCell>
      </root>
    </mxGraphModel>
  </diagram>
  <diagram id="XuiiRpJ12CHdMacsZVWG" name="file-types">
    <mxGraphModel dx="1242" dy="823" grid="1" gridSize="10" guides="1" tooltips="1" connect="1" arrows="1" fold="1" page="1" pageScale="1" pageWidth="827" pageHeight="1169" math="0" shadow="0">
      <root>
        <mxCell id="0" />
        <mxCell id="1" parent="0" />
        <mxCell id="SMoAeUGrcsFYhPmpA1hn-1" style="edgeStyle=orthogonalEdgeStyle;rounded=0;orthogonalLoop=1;jettySize=auto;html=1;exitX=1;exitY=0.5;exitDx=0;exitDy=0;entryX=0;entryY=0.5;entryDx=0;entryDy=0;" parent="1" source="SMoAeUGrcsFYhPmpA1hn-6" target="SMoAeUGrcsFYhPmpA1hn-7" edge="1">
          <mxGeometry relative="1" as="geometry" />
        </mxCell>
        <mxCell id="SMoAeUGrcsFYhPmpA1hn-2" style="edgeStyle=orthogonalEdgeStyle;rounded=0;orthogonalLoop=1;jettySize=auto;html=1;exitX=0.75;exitY=1;exitDx=0;exitDy=0;entryX=0;entryY=0.5;entryDx=0;entryDy=0;" parent="1" source="SMoAeUGrcsFYhPmpA1hn-6" target="SMoAeUGrcsFYhPmpA1hn-10" edge="1">
          <mxGeometry relative="1" as="geometry" />
        </mxCell>
        <mxCell id="SMoAeUGrcsFYhPmpA1hn-6" value="File Type" style="rounded=0;whiteSpace=wrap;html=1;fillColor=#e1d5e7;strokeColor=#9673a6;" parent="1" vertex="1">
          <mxGeometry x="260" y="1445" width="120" height="60" as="geometry" />
        </mxCell>
        <mxCell id="SMoAeUGrcsFYhPmpA1hn-7" value="Governance&lt;br&gt;Definition" style="rounded=0;whiteSpace=wrap;html=1;fillColor=#d5e8d4;strokeColor=#82b366;" parent="1" vertex="1">
          <mxGeometry x="490" y="1445" width="120" height="60" as="geometry" />
        </mxCell>
        <mxCell id="SMoAeUGrcsFYhPmpA1hn-8" value="GovernedBy" style="text;html=1;align=center;verticalAlign=middle;resizable=0;points=[];autosize=1;strokeColor=none;fillColor=none;" parent="1" vertex="1">
          <mxGeometry x="390" y="1445" width="90" height="30" as="geometry" />
        </mxCell>
        <mxCell id="SMoAeUGrcsFYhPmpA1hn-9" value="" style="edgeStyle=orthogonalEdgeStyle;rounded=0;orthogonalLoop=1;jettySize=auto;html=1;" parent="1" source="SMoAeUGrcsFYhPmpA1hn-10" target="SMoAeUGrcsFYhPmpA1hn-13" edge="1">
          <mxGeometry relative="1" as="geometry" />
        </mxCell>
        <mxCell id="SMoAeUGrcsFYhPmpA1hn-10" value="Asset" style="rounded=0;whiteSpace=wrap;html=1;fillColor=#fff2cc;strokeColor=#d6b656;" parent="1" vertex="1">
          <mxGeometry x="490" y="1555" width="120" height="60" as="geometry" />
        </mxCell>
        <mxCell id="SMoAeUGrcsFYhPmpA1hn-11" value="" style="edgeStyle=orthogonalEdgeStyle;rounded=0;orthogonalLoop=1;jettySize=auto;html=1;fillColor=#dae8fc;strokeColor=#6c8ebf;" parent="1" source="SMoAeUGrcsFYhPmpA1hn-13" target="SMoAeUGrcsFYhPmpA1hn-14" edge="1">
          <mxGeometry relative="1" as="geometry" />
        </mxCell>
        <mxCell id="SMoAeUGrcsFYhPmpA1hn-12" value="" style="edgeStyle=orthogonalEdgeStyle;rounded=0;orthogonalLoop=1;jettySize=auto;html=1;entryX=0;entryY=0.5;entryDx=0;entryDy=0;fillColor=#dae8fc;strokeColor=#6c8ebf;" parent="1" source="SMoAeUGrcsFYhPmpA1hn-13" target="SMoAeUGrcsFYhPmpA1hn-15" edge="1">
          <mxGeometry relative="1" as="geometry" />
        </mxCell>
        <mxCell id="SMoAeUGrcsFYhPmpA1hn-13" value="Connection" style="whiteSpace=wrap;html=1;rounded=0;fillColor=#dae8fc;strokeColor=#6c8ebf;" parent="1" vertex="1">
          <mxGeometry x="690" y="1555" width="120" height="60" as="geometry" />
        </mxCell>
        <mxCell id="SMoAeUGrcsFYhPmpA1hn-14" value="ConnectorType" style="whiteSpace=wrap;html=1;rounded=0;fillColor=#dae8fc;strokeColor=#6c8ebf;" parent="1" vertex="1">
          <mxGeometry x="890" y="1555" width="120" height="60" as="geometry" />
        </mxCell>
        <mxCell id="SMoAeUGrcsFYhPmpA1hn-15" value="Endpoint" style="whiteSpace=wrap;html=1;rounded=0;fillColor=#dae8fc;strokeColor=#6c8ebf;" parent="1" vertex="1">
          <mxGeometry x="890" y="1625" width="120" height="60" as="geometry" />
        </mxCell>
        <mxCell id="SMoAeUGrcsFYhPmpA1hn-16" value="CatalogTemplate" style="text;html=1;align=center;verticalAlign=middle;resizable=0;points=[];autosize=1;strokeColor=none;fillColor=none;" parent="1" vertex="1">
          <mxGeometry x="370" y="1555" width="110" height="30" as="geometry" />
        </mxCell>
        <mxCell id="SMoAeUGrcsFYhPmpA1hn-20" value="ResourceList" style="text;html=1;align=center;verticalAlign=middle;resizable=0;points=[];autosize=1;strokeColor=none;fillColor=none;" parent="1" vertex="1">
          <mxGeometry x="330" y="1625" width="90" height="30" as="geometry" />
        </mxCell>
        <mxCell id="SMoAeUGrcsFYhPmpA1hn-21" style="edgeStyle=orthogonalEdgeStyle;rounded=0;orthogonalLoop=1;jettySize=auto;html=1;exitX=0.5;exitY=1;exitDx=0;exitDy=0;entryX=0;entryY=0.5;entryDx=0;entryDy=0;" parent="1" source="SMoAeUGrcsFYhPmpA1hn-6" target="SMoAeUGrcsFYhPmpA1hn-22" edge="1">
          <mxGeometry relative="1" as="geometry">
            <mxPoint x="320" y="1965" as="targetPoint" />
            <mxPoint x="320" y="1575" as="sourcePoint" />
            <Array as="points">
              <mxPoint x="320" y="1730" />
            </Array>
          </mxGeometry>
        </mxCell>
        <mxCell id="SMoAeUGrcsFYhPmpA1hn-22" value="Resource&lt;br&gt;Connector Type" style="rounded=0;whiteSpace=wrap;html=1;fillColor=#f5f5f5;strokeColor=#666666;fontColor=#333333;" parent="1" vertex="1">
          <mxGeometry x="365" y="1700" width="120" height="60" as="geometry" />
        </mxCell>
        <mxCell id="SMoAeUGrcsFYhPmpA1hn-23" value="DataFile" style="rounded=0;whiteSpace=wrap;html=1;fillColor=#fff2cc;strokeColor=#d6b656;" parent="1" vertex="1">
          <mxGeometry x="580" y="1700" width="60" height="30" as="geometry" />
        </mxCell>
        <mxCell id="SMoAeUGrcsFYhPmpA1hn-24" value="deployedImplementationType = yyy&lt;br&gt;fileType = xxx" style="rounded=0;whiteSpace=wrap;html=1;fillColor=#fff2cc;strokeColor=#d6b656;" parent="1" vertex="1">
          <mxGeometry x="580" y="1730" width="210" height="60" as="geometry" />
        </mxCell>
        <mxCell id="SMoAeUGrcsFYhPmpA1hn-26" value=".csv&lt;br&gt;.avro&lt;br&gt;.ppt&lt;br&gt;.parquet&lt;br&gt;.omarchve" style="text;html=1;align=left;verticalAlign=middle;resizable=0;points=[];autosize=1;strokeColor=none;fillColor=none;" parent="1" vertex="1">
          <mxGeometry x="140" y="1430" width="80" height="90" as="geometry" />
        </mxCell>
        <mxCell id="SMoAeUGrcsFYhPmpA1hn-27" value="Asset" style="rounded=0;whiteSpace=wrap;html=1;fillColor=#b0e3e6;strokeColor=#0e8088;" parent="1" vertex="1">
          <mxGeometry x="320" y="80" width="120" height="60" as="geometry" />
        </mxCell>
        <mxCell id="SMoAeUGrcsFYhPmpA1hn-54" style="edgeStyle=orthogonalEdgeStyle;rounded=0;orthogonalLoop=1;jettySize=auto;html=1;entryX=0.5;entryY=1;entryDx=0;entryDy=0;endArrow=block;endFill=0;endSize=13;" parent="1" source="SMoAeUGrcsFYhPmpA1hn-53" target="SMoAeUGrcsFYhPmpA1hn-27" edge="1">
          <mxGeometry relative="1" as="geometry" />
        </mxCell>
        <mxCell id="SMoAeUGrcsFYhPmpA1hn-53" value="DataStore" style="rounded=0;whiteSpace=wrap;html=1;fillColor=#b0e3e6;strokeColor=#0e8088;" parent="1" vertex="1">
          <mxGeometry x="320" y="180" width="120" height="60" as="geometry" />
        </mxCell>
        <mxCell id="SMoAeUGrcsFYhPmpA1hn-55" value="DataFile" style="rounded=0;whiteSpace=wrap;html=1;fillColor=#b0e3e6;strokeColor=#0e8088;" parent="1" vertex="1">
          <mxGeometry x="320" y="300" width="120" height="60" as="geometry" />
        </mxCell>
        <mxCell id="SMoAeUGrcsFYhPmpA1hn-58" value="CSVFile" style="rounded=0;whiteSpace=wrap;html=1;fillColor=#b0e3e6;strokeColor=#0e8088;" parent="1" vertex="1">
          <mxGeometry x="170" y="380" width="120" height="60" as="geometry" />
        </mxCell>
        <mxCell id="SMoAeUGrcsFYhPmpA1hn-59" style="edgeStyle=orthogonalEdgeStyle;rounded=0;orthogonalLoop=1;jettySize=auto;html=1;endArrow=block;endFill=0;endSize=13;exitX=1;exitY=0.5;exitDx=0;exitDy=0;" parent="1" source="SMoAeUGrcsFYhPmpA1hn-58" target="SMoAeUGrcsFYhPmpA1hn-55" edge="1">
          <mxGeometry relative="1" as="geometry">
            <mxPoint x="170" y="320" as="sourcePoint" />
            <mxPoint x="160" y="370" as="targetPoint" />
          </mxGeometry>
        </mxCell>
        <mxCell id="SMoAeUGrcsFYhPmpA1hn-60" value="AvroFile" style="rounded=0;whiteSpace=wrap;html=1;fillColor=#b0e3e6;strokeColor=#0e8088;" parent="1" vertex="1">
          <mxGeometry x="170" y="450" width="120" height="60" as="geometry" />
        </mxCell>
        <mxCell id="SMoAeUGrcsFYhPmpA1hn-61" style="edgeStyle=orthogonalEdgeStyle;rounded=0;orthogonalLoop=1;jettySize=auto;html=1;endArrow=block;endFill=0;endSize=13;" parent="1" source="SMoAeUGrcsFYhPmpA1hn-60" target="SMoAeUGrcsFYhPmpA1hn-55" edge="1">
          <mxGeometry relative="1" as="geometry">
            <mxPoint x="180" y="330" as="sourcePoint" />
            <mxPoint x="170" y="380" as="targetPoint" />
          </mxGeometry>
        </mxCell>
        <mxCell id="SMoAeUGrcsFYhPmpA1hn-62" value="JSONFile" style="rounded=0;whiteSpace=wrap;html=1;fillColor=#b0e3e6;strokeColor=#0e8088;" parent="1" vertex="1">
          <mxGeometry x="170" y="520" width="120" height="60" as="geometry" />
        </mxCell>
        <mxCell id="SMoAeUGrcsFYhPmpA1hn-63" style="edgeStyle=orthogonalEdgeStyle;rounded=0;orthogonalLoop=1;jettySize=auto;html=1;endArrow=block;endFill=0;endSize=13;" parent="1" source="SMoAeUGrcsFYhPmpA1hn-62" target="SMoAeUGrcsFYhPmpA1hn-55" edge="1">
          <mxGeometry relative="1" as="geometry">
            <mxPoint x="190" y="340" as="sourcePoint" />
            <mxPoint x="180" y="390" as="targetPoint" />
          </mxGeometry>
        </mxCell>
        <mxCell id="SMoAeUGrcsFYhPmpA1hn-64" value="ParquetFile" style="rounded=0;whiteSpace=wrap;html=1;fillColor=#b0e3e6;strokeColor=#0e8088;" parent="1" vertex="1">
          <mxGeometry x="170" y="590" width="120" height="60" as="geometry" />
        </mxCell>
        <mxCell id="SMoAeUGrcsFYhPmpA1hn-65" style="edgeStyle=orthogonalEdgeStyle;rounded=0;orthogonalLoop=1;jettySize=auto;html=1;endArrow=block;endFill=0;endSize=13;entryX=0.5;entryY=1;entryDx=0;entryDy=0;" parent="1" source="SMoAeUGrcsFYhPmpA1hn-64" target="SMoAeUGrcsFYhPmpA1hn-55" edge="1">
          <mxGeometry relative="1" as="geometry">
            <mxPoint x="200" y="350" as="sourcePoint" />
            <mxPoint x="190" y="400" as="targetPoint" />
          </mxGeometry>
        </mxCell>
        <mxCell id="SMoAeUGrcsFYhPmpA1hn-66" value="SpreadsheetFile" style="rounded=0;whiteSpace=wrap;html=1;fillColor=#b0e3e6;strokeColor=#0e8088;" parent="1" vertex="1">
          <mxGeometry x="170" y="660" width="120" height="60" as="geometry" />
        </mxCell>
        <mxCell id="SMoAeUGrcsFYhPmpA1hn-67" style="edgeStyle=orthogonalEdgeStyle;rounded=0;orthogonalLoop=1;jettySize=auto;html=1;endArrow=block;endFill=0;endSize=13;" parent="1" source="SMoAeUGrcsFYhPmpA1hn-66" target="SMoAeUGrcsFYhPmpA1hn-55" edge="1">
          <mxGeometry relative="1" as="geometry">
            <mxPoint x="210" y="360" as="sourcePoint" />
            <mxPoint x="200" y="410" as="targetPoint" />
          </mxGeometry>
        </mxCell>
        <mxCell id="SMoAeUGrcsFYhPmpA1hn-68" value="XMLFile" style="rounded=0;whiteSpace=wrap;html=1;fillColor=#b0e3e6;strokeColor=#0e8088;" parent="1" vertex="1">
          <mxGeometry x="170" y="730" width="120" height="60" as="geometry" />
        </mxCell>
        <mxCell id="SMoAeUGrcsFYhPmpA1hn-69" style="edgeStyle=orthogonalEdgeStyle;rounded=0;orthogonalLoop=1;jettySize=auto;html=1;endArrow=block;endFill=0;endSize=13;entryX=0.5;entryY=1;entryDx=0;entryDy=0;" parent="1" source="SMoAeUGrcsFYhPmpA1hn-68" target="SMoAeUGrcsFYhPmpA1hn-55" edge="1">
          <mxGeometry relative="1" as="geometry">
            <mxPoint x="220" y="370" as="sourcePoint" />
            <mxPoint x="210" y="420" as="targetPoint" />
          </mxGeometry>
        </mxCell>
        <mxCell id="SMoAeUGrcsFYhPmpA1hn-70" value="FileFolder" style="rounded=0;whiteSpace=wrap;html=1;fillColor=#b0e3e6;strokeColor=#0e8088;" parent="1" vertex="1">
          <mxGeometry x="660" y="300" width="120" height="60" as="geometry" />
        </mxCell>
        <mxCell id="SMoAeUGrcsFYhPmpA1hn-72" value="DataFolder" style="rounded=0;whiteSpace=wrap;html=1;fillColor=#b0e3e6;strokeColor=#0e8088;" parent="1" vertex="1">
          <mxGeometry x="660" y="400" width="120" height="60" as="geometry" />
        </mxCell>
        <mxCell id="SMoAeUGrcsFYhPmpA1hn-73" style="edgeStyle=orthogonalEdgeStyle;rounded=0;orthogonalLoop=1;jettySize=auto;html=1;endArrow=block;endFill=0;endSize=13;" parent="1" source="SMoAeUGrcsFYhPmpA1hn-72" edge="1">
          <mxGeometry relative="1" as="geometry">
            <mxPoint x="730" y="310" as="sourcePoint" />
            <mxPoint x="720" y="360" as="targetPoint" />
          </mxGeometry>
        </mxCell>
        <mxCell id="SMoAeUGrcsFYhPmpA1hn-75" style="edgeStyle=orthogonalEdgeStyle;rounded=0;orthogonalLoop=1;jettySize=auto;html=1;endArrow=block;endFill=0;endSize=13;exitX=0.5;exitY=0;exitDx=0;exitDy=0;" parent="1" source="SMoAeUGrcsFYhPmpA1hn-55" target="SMoAeUGrcsFYhPmpA1hn-53" edge="1">
          <mxGeometry relative="1" as="geometry">
            <mxPoint x="300" y="420" as="sourcePoint" />
            <mxPoint x="390" y="370" as="targetPoint" />
          </mxGeometry>
        </mxCell>
        <mxCell id="SMoAeUGrcsFYhPmpA1hn-76" style="edgeStyle=orthogonalEdgeStyle;rounded=0;orthogonalLoop=1;jettySize=auto;html=1;endArrow=block;endFill=0;endSize=13;exitX=0.5;exitY=0;exitDx=0;exitDy=0;" parent="1" source="SMoAeUGrcsFYhPmpA1hn-70" target="SMoAeUGrcsFYhPmpA1hn-53" edge="1">
          <mxGeometry relative="1" as="geometry">
            <mxPoint x="310" y="430" as="sourcePoint" />
            <mxPoint x="490" y="250" as="targetPoint" />
          </mxGeometry>
        </mxCell>
        <mxCell id="SMoAeUGrcsFYhPmpA1hn-77" value="MediaFile" style="rounded=0;whiteSpace=wrap;html=1;fillColor=#b0e3e6;strokeColor=#0e8088;" parent="1" vertex="1">
          <mxGeometry x="480" y="380" width="120" height="60" as="geometry" />
        </mxCell>
        <mxCell id="SMoAeUGrcsFYhPmpA1hn-78" style="edgeStyle=orthogonalEdgeStyle;rounded=0;orthogonalLoop=1;jettySize=auto;html=1;endArrow=block;endFill=0;endSize=13;" parent="1" source="SMoAeUGrcsFYhPmpA1hn-77" edge="1">
          <mxGeometry relative="1" as="geometry">
            <mxPoint x="440" y="440" as="sourcePoint" />
            <mxPoint x="380" y="360" as="targetPoint" />
          </mxGeometry>
        </mxCell>
        <mxCell id="SMoAeUGrcsFYhPmpA1hn-79" value="Document" style="rounded=0;whiteSpace=wrap;html=1;fillColor=#b0e3e6;strokeColor=#0e8088;" parent="1" vertex="1">
          <mxGeometry x="640" y="520" width="120" height="60" as="geometry" />
        </mxCell>
        <mxCell id="SMoAeUGrcsFYhPmpA1hn-80" style="edgeStyle=orthogonalEdgeStyle;rounded=0;orthogonalLoop=1;jettySize=auto;html=1;endArrow=block;endFill=0;endSize=13;" parent="1" source="SMoAeUGrcsFYhPmpA1hn-79" target="SMoAeUGrcsFYhPmpA1hn-77" edge="1">
          <mxGeometry relative="1" as="geometry">
            <mxPoint x="450" y="450" as="sourcePoint" />
            <mxPoint x="390" y="370" as="targetPoint" />
          </mxGeometry>
        </mxCell>
        <mxCell id="SMoAeUGrcsFYhPmpA1hn-81" value="AudioFile" style="rounded=0;whiteSpace=wrap;html=1;fillColor=#b0e3e6;strokeColor=#0e8088;" parent="1" vertex="1">
          <mxGeometry x="640" y="590" width="120" height="60" as="geometry" />
        </mxCell>
        <mxCell id="SMoAeUGrcsFYhPmpA1hn-82" style="edgeStyle=orthogonalEdgeStyle;rounded=0;orthogonalLoop=1;jettySize=auto;html=1;endArrow=block;endFill=0;endSize=13;" parent="1" source="SMoAeUGrcsFYhPmpA1hn-81" edge="1">
          <mxGeometry relative="1" as="geometry">
            <mxPoint x="460" y="460" as="sourcePoint" />
            <mxPoint x="540" y="440" as="targetPoint" />
          </mxGeometry>
        </mxCell>
        <mxCell id="SMoAeUGrcsFYhPmpA1hn-83" value="3DImageFile" style="rounded=0;whiteSpace=wrap;html=1;fillColor=#b0e3e6;strokeColor=#0e8088;" parent="1" vertex="1">
          <mxGeometry x="640" y="660" width="120" height="60" as="geometry" />
        </mxCell>
        <mxCell id="SMoAeUGrcsFYhPmpA1hn-84" style="edgeStyle=orthogonalEdgeStyle;rounded=0;orthogonalLoop=1;jettySize=auto;html=1;endArrow=block;endFill=0;endSize=13;entryX=0.5;entryY=1;entryDx=0;entryDy=0;" parent="1" source="SMoAeUGrcsFYhPmpA1hn-83" target="SMoAeUGrcsFYhPmpA1hn-77" edge="1">
          <mxGeometry relative="1" as="geometry">
            <mxPoint x="470" y="470" as="sourcePoint" />
            <mxPoint x="410" y="390" as="targetPoint" />
          </mxGeometry>
        </mxCell>
        <mxCell id="SMoAeUGrcsFYhPmpA1hn-85" value="RasterFile" style="rounded=0;whiteSpace=wrap;html=1;fillColor=#b0e3e6;strokeColor=#0e8088;" parent="1" vertex="1">
          <mxGeometry x="640" y="730" width="120" height="60" as="geometry" />
        </mxCell>
        <mxCell id="SMoAeUGrcsFYhPmpA1hn-86" style="edgeStyle=orthogonalEdgeStyle;rounded=0;orthogonalLoop=1;jettySize=auto;html=1;endArrow=block;endFill=0;endSize=13;entryX=0.5;entryY=1;entryDx=0;entryDy=0;" parent="1" source="SMoAeUGrcsFYhPmpA1hn-85" target="SMoAeUGrcsFYhPmpA1hn-77" edge="1">
          <mxGeometry relative="1" as="geometry">
            <mxPoint x="480" y="480" as="sourcePoint" />
            <mxPoint x="420" y="400" as="targetPoint" />
          </mxGeometry>
        </mxCell>
        <mxCell id="SMoAeUGrcsFYhPmpA1hn-87" value="VectorFile" style="rounded=0;whiteSpace=wrap;html=1;fillColor=#b0e3e6;strokeColor=#0e8088;" parent="1" vertex="1">
          <mxGeometry x="640" y="800" width="120" height="60" as="geometry" />
        </mxCell>
        <mxCell id="SMoAeUGrcsFYhPmpA1hn-88" style="edgeStyle=orthogonalEdgeStyle;rounded=0;orthogonalLoop=1;jettySize=auto;html=1;endArrow=block;endFill=0;endSize=13;" parent="1" source="SMoAeUGrcsFYhPmpA1hn-87" edge="1">
          <mxGeometry relative="1" as="geometry">
            <mxPoint x="490" y="490" as="sourcePoint" />
            <mxPoint x="540" y="440" as="targetPoint" />
          </mxGeometry>
        </mxCell>
        <mxCell id="SMoAeUGrcsFYhPmpA1hn-89" value="LogFile" style="rounded=0;whiteSpace=wrap;html=1;fillColor=#b0e3e6;strokeColor=#0e8088;" parent="1" vertex="1">
          <mxGeometry x="169.5" y="800" width="120" height="60" as="geometry" />
        </mxCell>
        <mxCell id="SMoAeUGrcsFYhPmpA1hn-90" style="edgeStyle=orthogonalEdgeStyle;rounded=0;orthogonalLoop=1;jettySize=auto;html=1;endArrow=block;endFill=0;endSize=13;entryX=0.5;entryY=1;entryDx=0;entryDy=0;" parent="1" source="SMoAeUGrcsFYhPmpA1hn-89" target="SMoAeUGrcsFYhPmpA1hn-55" edge="1">
          <mxGeometry relative="1" as="geometry">
            <mxPoint x="219.5" y="440" as="sourcePoint" />
            <mxPoint x="379.5" y="430" as="targetPoint" />
          </mxGeometry>
        </mxCell>
        <mxCell id="SMoAeUGrcsFYhPmpA1hn-91" value="ArchiveFile" style="rounded=0;whiteSpace=wrap;html=1;fillColor=#b0e3e6;strokeColor=#0e8088;" parent="1" vertex="1">
          <mxGeometry x="170" y="870" width="120" height="60" as="geometry" />
        </mxCell>
        <mxCell id="SMoAeUGrcsFYhPmpA1hn-92" style="edgeStyle=orthogonalEdgeStyle;rounded=0;orthogonalLoop=1;jettySize=auto;html=1;endArrow=block;endFill=0;endSize=13;" parent="1" source="SMoAeUGrcsFYhPmpA1hn-91" edge="1">
          <mxGeometry relative="1" as="geometry">
            <mxPoint x="220" y="510" as="sourcePoint" />
            <mxPoint x="380" y="360" as="targetPoint" />
          </mxGeometry>
        </mxCell>
        <mxCell id="SMoAeUGrcsFYhPmpA1hn-93" value="KeystoreFile" style="rounded=0;whiteSpace=wrap;html=1;fillColor=#b0e3e6;strokeColor=#0e8088;" parent="1" vertex="1">
          <mxGeometry x="169.5" y="940" width="120" height="60" as="geometry" />
        </mxCell>
        <mxCell id="SMoAeUGrcsFYhPmpA1hn-94" style="edgeStyle=orthogonalEdgeStyle;rounded=0;orthogonalLoop=1;jettySize=auto;html=1;endArrow=block;endFill=0;endSize=13;" parent="1" source="SMoAeUGrcsFYhPmpA1hn-93" target="SMoAeUGrcsFYhPmpA1hn-55" edge="1">
          <mxGeometry relative="1" as="geometry">
            <mxPoint x="219.5" y="580" as="sourcePoint" />
            <mxPoint x="379.5" y="570" as="targetPoint" />
          </mxGeometry>
        </mxCell>
        <mxCell id="SMoAeUGrcsFYhPmpA1hn-95" value="SourceFile" style="rounded=0;whiteSpace=wrap;html=1;fillColor=#b0e3e6;strokeColor=#0e8088;" parent="1" vertex="1">
          <mxGeometry x="170" y="1010" width="120" height="60" as="geometry" />
        </mxCell>
        <mxCell id="SMoAeUGrcsFYhPmpA1hn-96" style="edgeStyle=orthogonalEdgeStyle;rounded=0;orthogonalLoop=1;jettySize=auto;html=1;endArrow=block;endFill=0;endSize=13;" parent="1" source="SMoAeUGrcsFYhPmpA1hn-95" target="SMoAeUGrcsFYhPmpA1hn-55" edge="1">
          <mxGeometry relative="1" as="geometry">
            <mxPoint x="220" y="650" as="sourcePoint" />
            <mxPoint x="380" y="640" as="targetPoint" />
          </mxGeometry>
        </mxCell>
        <mxCell id="SMoAeUGrcsFYhPmpA1hn-97" value="BuildInstructionFile" style="rounded=0;whiteSpace=wrap;html=1;fillColor=#b0e3e6;strokeColor=#0e8088;" parent="1" vertex="1">
          <mxGeometry x="169.5" y="1080" width="120" height="60" as="geometry" />
        </mxCell>
        <mxCell id="SMoAeUGrcsFYhPmpA1hn-98" style="edgeStyle=orthogonalEdgeStyle;rounded=0;orthogonalLoop=1;jettySize=auto;html=1;endArrow=block;endFill=0;endSize=13;" parent="1" source="SMoAeUGrcsFYhPmpA1hn-97" target="SMoAeUGrcsFYhPmpA1hn-55" edge="1">
          <mxGeometry relative="1" as="geometry">
            <mxPoint x="230" y="660" as="sourcePoint" />
            <mxPoint x="390" y="650" as="targetPoint" />
          </mxGeometry>
        </mxCell>
        <mxCell id="SMoAeUGrcsFYhPmpA1hn-99" value="ExecutableFile" style="rounded=0;whiteSpace=wrap;html=1;fillColor=#b0e3e6;strokeColor=#0e8088;" parent="1" vertex="1">
          <mxGeometry x="169.5" y="1150" width="120" height="60" as="geometry" />
        </mxCell>
        <mxCell id="SMoAeUGrcsFYhPmpA1hn-100" style="edgeStyle=orthogonalEdgeStyle;rounded=0;orthogonalLoop=1;jettySize=auto;html=1;endArrow=block;endFill=0;endSize=13;" parent="1" source="SMoAeUGrcsFYhPmpA1hn-99" target="SMoAeUGrcsFYhPmpA1hn-55" edge="1">
          <mxGeometry relative="1" as="geometry">
            <mxPoint x="240" y="670" as="sourcePoint" />
            <mxPoint x="400" y="660" as="targetPoint" />
          </mxGeometry>
        </mxCell>
        <mxCell id="SMoAeUGrcsFYhPmpA1hn-101" value="ScriptFile" style="rounded=0;whiteSpace=wrap;html=1;fillColor=#b0e3e6;strokeColor=#0e8088;" parent="1" vertex="1">
          <mxGeometry x="169.5" y="1220" width="120" height="60" as="geometry" />
        </mxCell>
        <mxCell id="SMoAeUGrcsFYhPmpA1hn-102" style="edgeStyle=orthogonalEdgeStyle;rounded=0;orthogonalLoop=1;jettySize=auto;html=1;endArrow=block;endFill=0;endSize=13;" parent="1" source="SMoAeUGrcsFYhPmpA1hn-101" target="SMoAeUGrcsFYhPmpA1hn-55" edge="1">
          <mxGeometry relative="1" as="geometry">
            <mxPoint x="250" y="680" as="sourcePoint" />
            <mxPoint x="410" y="670" as="targetPoint" />
          </mxGeometry>
        </mxCell>
        <mxCell id="SMoAeUGrcsFYhPmpA1hn-103" value="YAMLFile" style="rounded=0;whiteSpace=wrap;html=1;fillColor=#b0e3e6;strokeColor=#0e8088;" parent="1" vertex="1">
          <mxGeometry x="169.5" y="1289" width="120" height="60" as="geometry" />
        </mxCell>
        <mxCell id="SMoAeUGrcsFYhPmpA1hn-104" style="edgeStyle=orthogonalEdgeStyle;rounded=0;orthogonalLoop=1;jettySize=auto;html=1;endArrow=block;endFill=0;endSize=13;" parent="1" source="SMoAeUGrcsFYhPmpA1hn-103" target="SMoAeUGrcsFYhPmpA1hn-55" edge="1">
          <mxGeometry relative="1" as="geometry">
            <mxPoint x="260" y="690" as="sourcePoint" />
            <mxPoint x="420" y="680" as="targetPoint" />
          </mxGeometry>
        </mxCell>
        <mxCell id="SMoAeUGrcsFYhPmpA1hn-105" value="ValidValueSet" style="rounded=0;whiteSpace=wrap;html=1;fillColor=#fad7ac;strokeColor=#b46504;" parent="1" vertex="1">
          <mxGeometry x="540" y="1190" width="120" height="30" as="geometry" />
        </mxCell>
        <mxCell id="SMoAeUGrcsFYhPmpA1hn-106" value="displayName : &quot;Parquet File&quot;&lt;br&gt;description : &quot;Columnar data file.&quot;&lt;br&gt;deployedImplementationType : &quot;File&quot;&lt;br&gt;fileType : &quot;Parquet&quot;&lt;br&gt;fileExtension : &quot;pqt&quot;" style="rounded=0;whiteSpace=wrap;html=1;align=left;fillColor=#fad7ac;strokeColor=#b46504;" parent="1" vertex="1">
          <mxGeometry x="540" y="1220" width="230" height="100" as="geometry" />
        </mxCell>
        <mxCell id="SMoAeUGrcsFYhPmpA1hn-107" value="ValidValueSet" style="rounded=0;whiteSpace=wrap;html=1;fillColor=#fad7ac;strokeColor=#b46504;" parent="1" vertex="1">
          <mxGeometry x="790" y="1190" width="120" height="30" as="geometry" />
        </mxCell>
        <mxCell id="SMoAeUGrcsFYhPmpA1hn-108" value="displayName : &quot;Parquet File&quot;&lt;br&gt;description : &quot;Columnar data file.&quot;&lt;br&gt;deployedImplementationType : &quot;File&quot;&lt;br&gt;fileType : &quot;Parquet&quot;&lt;br&gt;fileExtension : &quot;parquet&quot;" style="rounded=0;whiteSpace=wrap;html=1;align=left;fillColor=#fad7ac;strokeColor=#b46504;" parent="1" vertex="1">
          <mxGeometry x="790" y="1220" width="230" height="100" as="geometry" />
        </mxCell>
      </root>
    </mxGraphModel>
  </diagram>
  <diagram id="7rmoZfFoL5cO5E5jDYzf" name="user-profile">
    <mxGraphModel dx="1242" dy="823" grid="1" gridSize="10" guides="1" tooltips="1" connect="1" arrows="1" fold="1" page="1" pageScale="1" pageWidth="827" pageHeight="1169" math="0" shadow="0">
      <root>
        <mxCell id="0" />
        <mxCell id="1" parent="0" />
        <mxCell id="RfF2yoiQYKBwpprb4mHW-1" value="Person" style="rounded=0;whiteSpace=wrap;html=1;fillColor=#d0cee2;strokeColor=#56517e;" parent="1" vertex="1">
          <mxGeometry x="140" y="190" width="70" height="30" as="geometry" />
        </mxCell>
        <mxCell id="RfF2yoiQYKBwpprb4mHW-5" style="edgeStyle=orthogonalEdgeStyle;rounded=0;orthogonalLoop=1;jettySize=auto;html=1;exitX=0.5;exitY=1;exitDx=0;exitDy=0;entryX=0;entryY=0.5;entryDx=0;entryDy=0;" parent="1" source="RfF2yoiQYKBwpprb4mHW-2" target="RfF2yoiQYKBwpprb4mHW-4" edge="1">
          <mxGeometry relative="1" as="geometry" />
        </mxCell>
        <mxCell id="RfF2yoiQYKBwpprb4mHW-2" value="Callie Quartile" style="rounded=0;whiteSpace=wrap;html=1;fillColor=#d0cee2;strokeColor=#56517e;" parent="1" vertex="1">
          <mxGeometry x="140" y="220" width="120" height="60" as="geometry" />
        </mxCell>
        <mxCell id="RfF2yoiQYKBwpprb4mHW-3" value="Collection" style="rounded=0;whiteSpace=wrap;html=1;fillColor=#fff2cc;strokeColor=#d6b656;" parent="1" vertex="1">
          <mxGeometry x="240" y="330" width="70" height="30" as="geometry" />
        </mxCell>
        <mxCell id="RfF2yoiQYKBwpprb4mHW-4" value="Callie&#39;s Interesting Technologies" style="rounded=0;whiteSpace=wrap;html=1;fillColor=#fff2cc;strokeColor=#d6b656;" parent="1" vertex="1">
          <mxGeometry x="240" y="360" width="120" height="60" as="geometry" />
        </mxCell>
        <mxCell id="RfF2yoiQYKBwpprb4mHW-6" value="DeployedImplementationType" style="rounded=0;whiteSpace=wrap;html=1;fillColor=#dae8fc;strokeColor=#6c8ebf;" parent="1" vertex="1">
          <mxGeometry x="330" y="460" width="180" height="30" as="geometry" />
        </mxCell>
        <mxCell id="RfF2yoiQYKBwpprb4mHW-7" value="Files on File System" style="rounded=0;whiteSpace=wrap;html=1;fillColor=#dae8fc;strokeColor=#6c8ebf;" parent="1" vertex="1">
          <mxGeometry x="330" y="490" width="230" height="50" as="geometry" />
        </mxCell>
        <mxCell id="RfF2yoiQYKBwpprb4mHW-8" value="DeployedImplementationType" style="rounded=0;whiteSpace=wrap;html=1;fillColor=#dae8fc;strokeColor=#6c8ebf;" parent="1" vertex="1">
          <mxGeometry x="340" y="470" width="180" height="30" as="geometry" />
        </mxCell>
        <mxCell id="RfF2yoiQYKBwpprb4mHW-9" value="Files on File System" style="rounded=0;whiteSpace=wrap;html=1;fillColor=#dae8fc;strokeColor=#6c8ebf;" parent="1" vertex="1">
          <mxGeometry x="340" y="500" width="230" height="50" as="geometry" />
        </mxCell>
        <mxCell id="RfF2yoiQYKBwpprb4mHW-10" value="DeployedImplementationType" style="rounded=0;whiteSpace=wrap;html=1;fillColor=#dae8fc;strokeColor=#6c8ebf;" parent="1" vertex="1">
          <mxGeometry x="350" y="480" width="180" height="30" as="geometry" />
        </mxCell>
        <mxCell id="RfF2yoiQYKBwpprb4mHW-11" value="Files on File System" style="rounded=0;whiteSpace=wrap;html=1;fillColor=#dae8fc;strokeColor=#6c8ebf;" parent="1" vertex="1">
          <mxGeometry x="350" y="510" width="230" height="50" as="geometry" />
        </mxCell>
        <mxCell id="RfF2yoiQYKBwpprb4mHW-12" value="DeployedImplementationType" style="rounded=0;whiteSpace=wrap;html=1;fillColor=#dae8fc;strokeColor=#6c8ebf;" parent="1" vertex="1">
          <mxGeometry x="360" y="490" width="180" height="30" as="geometry" />
        </mxCell>
        <mxCell id="RfF2yoiQYKBwpprb4mHW-13" value="Files on File System" style="rounded=0;whiteSpace=wrap;html=1;fillColor=#dae8fc;strokeColor=#6c8ebf;" parent="1" vertex="1">
          <mxGeometry x="360" y="520" width="230" height="50" as="geometry" />
        </mxCell>
        <mxCell id="RfF2yoiQYKBwpprb4mHW-14" style="edgeStyle=orthogonalEdgeStyle;rounded=0;orthogonalLoop=1;jettySize=auto;html=1;exitX=0.25;exitY=1;exitDx=0;exitDy=0;entryX=0;entryY=0.5;entryDx=0;entryDy=0;" parent="1" source="RfF2yoiQYKBwpprb4mHW-4" target="RfF2yoiQYKBwpprb4mHW-7" edge="1">
          <mxGeometry relative="1" as="geometry" />
        </mxCell>
        <mxCell id="RfF2yoiQYKBwpprb4mHW-15" style="edgeStyle=orthogonalEdgeStyle;rounded=0;orthogonalLoop=1;jettySize=auto;html=1;exitX=0.25;exitY=1;exitDx=0;exitDy=0;entryX=0;entryY=0.5;entryDx=0;entryDy=0;" parent="1" source="RfF2yoiQYKBwpprb4mHW-4" target="RfF2yoiQYKBwpprb4mHW-9" edge="1">
          <mxGeometry relative="1" as="geometry" />
        </mxCell>
        <mxCell id="RfF2yoiQYKBwpprb4mHW-16" style="edgeStyle=orthogonalEdgeStyle;rounded=0;orthogonalLoop=1;jettySize=auto;html=1;exitX=0.25;exitY=1;exitDx=0;exitDy=0;entryX=0;entryY=0.5;entryDx=0;entryDy=0;" parent="1" source="RfF2yoiQYKBwpprb4mHW-4" target="RfF2yoiQYKBwpprb4mHW-11" edge="1">
          <mxGeometry relative="1" as="geometry" />
        </mxCell>
        <mxCell id="RfF2yoiQYKBwpprb4mHW-17" style="edgeStyle=orthogonalEdgeStyle;rounded=0;orthogonalLoop=1;jettySize=auto;html=1;exitX=0.25;exitY=1;exitDx=0;exitDy=0;entryX=0;entryY=0.5;entryDx=0;entryDy=0;" parent="1" source="RfF2yoiQYKBwpprb4mHW-4" target="RfF2yoiQYKBwpprb4mHW-13" edge="1">
          <mxGeometry relative="1" as="geometry" />
        </mxCell>
      </root>
    </mxGraphModel>
  </diagram>
  <diagram id="qW-D6QI-DIGoc5VB6k1V" name="Page-4">
    <mxGraphModel dx="1242" dy="823" grid="1" gridSize="10" guides="1" tooltips="1" connect="1" arrows="1" fold="1" page="1" pageScale="1" pageWidth="827" pageHeight="1169" math="0" shadow="0">
      <root>
        <mxCell id="0" />
        <mxCell id="1" parent="0" />
      </root>
    </mxGraphModel>
  </diagram>
</mxfile>
